<svg xmlns="http://www.w3.org/2000/svg" version="1.1" xmlns:xlink="http://www.w3.org/1999/xlink" xmlns:svgjs="http://svgjs.com/svgjs" width="100%" height="100%" viewBox="0 0 1000 600"><rect width="1000" height="600" x="0" y="0" fill="#ee4e34"/><g><rect width="333.3333333333333" height="333.3333333333333" rx="13.333333333333334" ry="13.333333333333334" y="319.9760304856986" fill="#fcedda" transform="matrix(0.4198099488677753,0,0,0.4198099488677753,0,95.70256122126487)" x="297.7539367675781"/><path d="M506.08888984279633 561.6427169260016L490.9101435867925 520.7069861931109L436.46591473803744 520.7069861931109L421.69740486733104 561.6427169260016L404.4088714869406 561.6427169260016L460.3182302831863 411.64271290190203L468.31783979648566 411.64271290190203L524.4323167853801 561.6427169260016L506.08888984279633 561.6427169260016ZM458.4135613514484 461.01759213233913L442.1506189343014 505.5282399371071L485.6356757758259 505.5282399371071L469.16761516603026 460.5780531480919L463.89314735506366 438.2201701493836L463.688029162415 438.2201701493836L458.4135613514484 461.01759213233913Z " fill="#ee4e34" transform="matrix(0.4198099488677753,0,0,0.4198099488677753,0,95.70256122126487)"/><path d="M814.4205955166116 559.1643289635886L799.4926414073104 518.9049623792378L745.9479720345662 518.9049623792378L731.4234761444353 559.1643289635886L714.4205940508298 559.1643289635886L769.4061856348965 411.6427129683905L777.2736209087175 411.6427129683905L832.4609416023694 559.1643289635886L814.4205955166116 559.1643289635886ZM767.5329867601773 460.20179148995896L751.5387502144974 503.9770082699367L794.3053214465494 503.9770082699367L778.1093557912845 459.7695148265622L772.9220358305234 437.7810418817808L772.7203067209383 437.7810418817808L767.5329867601773 460.20179148995896ZM833.2966764849365 469.9424256384991L833.2966764849365 455.41792974836824L849.4926421402014 455.41792974836824L849.4926421402014 434.8703790149093L866.0920660146367 430.11533571754507L866.0920660146367 455.41792974836824L894.3053229123313 455.41792974836824L894.3053229123313 469.9424256384991L866.0920660146367 469.9424256384991L866.0920660146367 527.4064034260407Q866.0920660146367 538.2133200109595 868.7721813276966 542.6801788660591Q871.4811150849828 547.1182192769325 877.9076281474812 547.1182192769325L877.9076281474812 547.1182192769325Q883.2966772178273 547.1182192769325 887.0430749672659 545.9942999521008Q890.7894727167044 544.8415621830429 895.3427869044835 542.9683633083237L895.3427869044835 542.9683633083237L899.0891846539221 555.6484787679617Q893.4695880297643 558.3285940810215 886.8413458576807 560.0000638461556Q880.1842852413707 561.6427151670633 872.518579077135 561.6427151670633L872.518579077135 561.6427151670633Q859.8672820617235 561.6427151670633 854.6799621009625 554.4957409989038Q849.4926421402014 547.3487668307441 849.4926421402014 530.5187954024973L849.4926421402014 530.5187954024973L849.4926421402014 469.9424256384991L833.2966764849365 469.9424256384991ZM903.6424988417011 469.9424256384991L903.6424988417011 455.41792974836824L919.8384644969661 455.41792974836824L919.8384644969661 434.8703790149093L936.4378883714014 430.11533571754507L936.4378883714014 455.41792974836824L964.651145269096 455.41792974836824L964.651145269096 469.9424256384991L936.4378883714014 469.9424256384991L936.4378883714014 527.4064034260407Q936.4378883714014 538.2133200109595 939.1180036844612 542.6801788660591Q941.8269374417475 547.1182192769325 948.253450504246 547.1182192769325L948.253450504246 547.1182192769325Q953.6424995745921 547.1182192769325 957.3888973240306 545.9942999521008Q961.1064766292427 544.8415621830429 965.6886092612483 542.9683633083237L965.6886092612483 542.9683633083237L969.4061885664603 555.6484787679617Q963.815410386529 558.3285940810215 957.1871682144454 560.0000638461556Q950.5301075981355 561.6427151670633 942.8644014338997 561.6427151670633L942.8644014338997 561.6427151670633Q930.2131044184881 561.6427151670633 925.0257844577271 554.4957409989038Q919.8384644969661 547.3487668307441 919.8384644969661 530.5187954024973L919.8384644969661 530.5187954024973L919.8384644969661 469.9424256384991L903.6424988417011 469.9424256384991ZM1054.9105125863377 538.8185073397149L1061.135296539251 550.864617026371Q1054.9105125863377 555.8502078775468 1045.4580628800622 558.7608707444183Q1036.034431618013 561.6427151670633 1025.4292441426794 561.6427151670633L1025.4292441426794 561.6427151670633Q1013.6136820098347 561.6427151670633 1004.9105118534469 557.8098620849455Q996.1785232528325 553.9770090028276 990.587745072901 546.8300348346679Q984.9681484487434 539.6542422222819 982.2880331356835 529.7118789641565Q979.5790993783971 519.7406972618048 979.5790993783971 507.29112935597846L979.5790993783971 507.29112935597846Q979.5790993783971 480.7205237791914 991.4234799554682 466.83003366204247Q1003.2390420883128 452.9395435448935 1025.2275150330943 452.9395435448935L1025.2275150330943 452.9395435448935Q1032.2880338685745 452.9395435448935 1039.3485527040548 454.4957395331218Q1046.409071539535 456.0519355213501 1051.9998497194663 460.4035205995441Q1057.5906278993975 464.7551056777381 1061.135296539251 472.73781472846474Q1064.651146734878 480.7205237791914 1064.651146734878 493.8040974579998L1064.651146734878 493.8040974579998Q1064.651146734878 500.6628871838949 1063.4119536331405 508.96259912111253L1063.4119536331405 508.96259912111253L996.8125290258143 508.96259912111253Q996.8125290258143 518.0692274966707 998.6857279005336 525.1297463321511Q1000.5301083310264 532.1902651676313 1004.4782351900501 537.0605822419013Q1008.4263620490738 541.9308993161715 1014.7664197788928 544.5245592965521Q1021.0776590644853 547.1182192769325 1030.2131058842701 547.1182192769325L1030.2131058842701 547.1182192769325Q1037.2736247197504 547.1182192769325 1044.3341435552306 544.6398330734578Q1051.3658439464843 542.1614468699831 1054.9105125863377 538.8185073397149L1054.9105125863377 538.8185073397149ZM1025.4292441426794 467.4640394350244L1025.4292441426794 467.4640394350244Q1013.2102237906645 467.4640394350244 1005.8327020686933 473.8905524975228Q998.455180346722 480.31706556002115 997.0142581353996 495.8790254423042L997.0142581353996 495.8790254423042L1048.4839995238394 495.8790254423042Q1048.4839995238394 480.115336450436 1042.4609446805114 473.77527872061694Q1036.4378898371833 467.4640394350244 1025.4292441426794 467.4640394350244ZM1174.017142574256 559.1643289635886L1157.4177186998209 559.1643289635886L1157.4177186998209 500.028881410913Q1157.4177186998209 483.83291575564806 1152.7491307351359 475.6484775953362Q1148.080542770451 467.4640394350244 1135.6309748646245 467.4640394350244L1135.6309748646245 467.4640394350244Q1124.6223291701206 467.4640394350244 1117.475355001961 473.3718205014467Q1110.299562389575 479.27960156786895 1107.3888995227035 488.21331927806847L1107.3888995227035 488.21331927806847L1107.3888995227035 559.1643289635886L1090.789475648268 559.1643289635886L1090.789475648268 455.41792974836824L1102.432127115754 455.41792974836824L1105.5445190922105 468.06922676377985L1106.3514355305513 468.06922676377985Q1111.3370263817271 461.44098459169635 1119.7520120958504 457.1758548461817Q1128.1381793657474 452.9395435448935 1139.7808308332333 452.9395435448935L1139.7808308332333 452.9395435448935Q1148.2822718800362 452.9395435448935 1154.7087849425345 454.89919775229214Q1161.1352980050328 456.85885195969075 1165.4004277505476 461.8444428108666Q1169.6367390518355 466.83003366204247 1171.826940813046 475.2450193761659Q1174.017142574256 483.6311866460629 1174.017142574256 496.5130312152861L1174.017142574256 496.5130312152861L1174.017142574256 559.1643289635886ZM1283.9883257423896 413.9193700622801L1283.9883257423896 523.4870950112434Q1283.9883257423896 534.0634640423506 1284.1900548519748 542.6801788660591Q1284.3917839615601 551.2680752455412 1286.063253726694 559.5677871827589L1286.063253726694 559.5677871827589L1274.8528789226052 559.5677871827589L1270.7030229539964 544.8415621830429L1269.8672880714291 544.8415621830429Q1265.7174321028203 552.1038101281083 1257.8211783847728 556.887671869699Q1249.953743110952 561.6427151670633 1239.3773740798451 561.6427151670633L1239.3773740798451 561.6427151670633Q1218.6280942368007 561.6427151670633 1208.5416387575433 548.5879599324815Q1198.4840017225122 535.5043862536731 1198.4840017225122 507.6945875751487L1198.4840017225122 507.6945875751487Q1198.4840017225122 481.1528004425882 1211.0488434052445 467.34876565811857Q1223.5848666437503 453.544730873649 1245.6021580327583 453.544730873649L1245.6021580327583 453.544730873649Q1253.2678641969937 453.544730873649 1257.7347230520936 454.38046575621604Q1262.2015819071935 455.2162006387831 1267.3889018679545 457.0893995135023L1267.3889018679545 457.0893995135023L1267.3889018679545 413.9193700622801L1283.9883257423896 413.9193700622801ZM1242.0574893929047 547.1182192769325L1242.0574893929047 547.1182192769325Q1252.633858424012 547.1182192769325 1258.8586423769252 541.6427148739069Q1265.0834263298384 536.1383920266551 1267.3889018679545 524.9280172225658L1267.3889018679545 524.9280172225658L1267.3889018679545 473.458275834126Q1263.642504118516 470.576431411481 1258.8586423769252 469.3084198655172Q1254.1035990795608 468.06922676377985 1246.2073453615135 468.06922676377985L1246.2073453615135 468.06922676377985Q1231.8845785809679 468.06922676377985 1223.815414197562 477.52167647005547Q1215.7174313699293 486.94530773210465 1215.7174313699293 507.6945875751487L1215.7174313699293 507.6945875751487Q1215.7174313699293 516.224847066178 1217.0718982485726 523.4870950112434Q1218.3975466829893 530.7493429563087 1221.5099386594459 535.9366629170698Q1224.6223306359025 541.1239828778309 1229.723195263984 544.1211010773816Q1234.7952414478393 547.1182192769325 1242.0574893929047 547.1182192769325ZM1319.46383058515 475.5332038184304L1314.2765106243887 463.08363591260394Q1322.1439458982097 458.3285926152397 1332.6338595966376 456.0519355213501Q1343.1237732950653 453.74645998323416 1354.5358772087395 453.74645998323416L1354.5358772087395 453.74645998323416Q1365.313975349432 453.74645998323416 1371.8557621888363 456.6571228501056Q1378.3975490282403 459.567785716977 1381.7981254469614 464.236373681662Q1385.2275203099089 468.90496164634686 1386.380258078967 474.4957398262782Q1387.5041774037984 480.115336450436 1387.5041774037984 485.7061146303673L1387.5041774037984 485.7061146303673Q1387.5041774037984 498.15568253619375 1386.898990075043 510.00006311326473Q1386.2649843020613 521.8156252461092 1386.2649843020613 532.3919942772166L1386.2649843020613 532.3919942772166Q1386.2649843020613 540.0865188856787 1386.898990075043 546.9164901673473Q1387.5041774037984 553.7752798932424 1389.1756471689328 559.5677871827589L1389.1756471689328 559.5677871827589L1376.9278083726913 559.5677871827589L1372.5762232944971 545.043291292628L1371.5387593023452 545.043291292628Q1369.665560427626 547.9539541594995 1366.8701713376602 550.7493432494653Q1364.0747822476947 553.5735507836573 1360.1266553886708 555.7349341006411Q1356.1785285296473 557.9251358618512 1350.9912085688861 559.3660580731737Q1345.8038886081254 560.8357987287227 1339.1756464360417 560.8357987287227L1339.1756464360417 560.8357987287227Q1332.5185858197317 560.8357987287227 1326.8125338628947 558.7608707444183Q1321.1064819060575 556.6859427601139 1316.9566259374487 552.8242712337697Q1312.80676996884 548.9914181516517 1310.443657542271 543.6023690813056Q1308.0517266714755 538.2133200109595 1308.0517266714755 531.3545302850644L1308.0517266714755 531.3545302850644Q1308.0517266714755 522.2190834652796 1311.7693059766875 516.1095732892722Q1315.515703726126 510.00006311326473 1322.2592196751154 506.36893914073204Q1329.0027356241048 502.73781516819935 1338.4551853303806 501.181619179971Q1347.8788165924298 499.6254231917427 1359.2909205061037 499.6254231917427L1359.2909205061037 499.6254231917427Q1362.2015833729752 499.6254231917427 1364.996972462941 499.6254231917427Q1367.7923615529066 499.6254231917427 1370.703024419778 500.028881410913L1370.703024419778 500.028881410913Q1371.3370301927598 493.8040974579998 1371.3370301927598 488.8185066068239L1371.3370301927598 488.8185066068239Q1371.3370301927598 477.4064026931497 1366.7548975607544 472.8530885053706Q1362.2015833729752 468.270955873365 1350.155473686319 468.270955873365L1350.155473686319 468.270955873365Q1346.6396234906922 468.270955873365 1342.6050412989894 468.7896878694411Q1338.5416406630598 469.3084198655172 1334.3053293617716 470.25942852499Q1330.0401996162568 471.18161874023644 1326.207346534139 472.5360856188796Q1322.3744934520214 473.8905524975228 1319.46383058515 475.5332038184304L1319.46383058515 475.5332038184304ZM1343.7289606238207 546.3113028385919L1343.7289606238207 546.3113028385919Q1349.5502863575637 546.3113028385919 1354.103600545343 544.7551068503635Q1358.6857331773485 543.1989108621353 1361.9998542633903 540.8069799913399Q1365.313975349432 538.4150491205446 1367.504177110642 535.5043862536731Q1369.665560427626 532.5937233868017 1370.703024419778 529.9136080737418L1370.703024419778 529.9136080737418L1370.703024419778 512.6801784263246Q1367.7923615529066 512.4784493167394 1364.7952433533558 512.3631755398337Q1361.798125153805 512.2767202071543 1358.8874622869334 512.2767202071543L1358.8874622869334 512.2767202071543Q1352.4609492244351 512.2767202071543 1346.3226206042013 512.9971813128157Q1340.2131104281939 513.7176424184768 1335.5445224635089 515.7061150701019Q1330.875934498824 517.6657692775004 1328.0805454088584 521.0951641404481Q1325.2563378746663 524.5245590033956 1325.2563378746663 529.7118789641565L1325.2563378746663 529.7118789641565Q1325.2563378746663 536.974126909222 1330.4436578354273 541.6427148739069Q1335.6309777961883 546.3113028385919 1343.7289606238207 546.3113028385919ZM1502.0574932039376 559.1643289635886L1485.4580693295025 559.1643289635886L1485.4580693295025 500.028881410913Q1485.4580693295025 483.83291575564806 1480.7894813648174 475.6484775953362Q1476.1208934001324 467.4640394350244 1463.671325494306 467.4640394350244L1463.671325494306 467.4640394350244Q1452.6626797998022 467.4640394350244 1445.5157056316425 473.3718205014467Q1438.3399130192565 479.27960156786895 1435.4580685966116 488.21331927806847L1435.4580685966116 488.21331927806847L1435.4580685966116 559.1643289635886L1418.8586447221762 559.1643289635886L1418.8586447221762 455.41792974836824L1430.4724777454358 455.41792974836824L1433.5848697218921 468.06922676377985L1434.4206046044592 468.06922676377985Q1439.3773770114087 461.44098459169635 1447.792362725532 457.1758548461817Q1456.2073484396556 452.9395435448935 1467.8211814629149 452.9395435448935L1467.8211814629149 452.9395435448935Q1476.3226225097178 452.9395435448935 1482.7491355722161 454.89919775229214Q1489.1756486347144 456.85885195969075 1493.440778380229 461.8444428108666Q1497.7059081257437 466.83003366204247 1499.8672914427275 475.2450193761659Q1502.0574932039376 483.6311866460629 1502.0574932039376 496.5130312152861L1502.0574932039376 496.5130312152861L1502.0574932039376 559.1643289635886ZM1597.7059095915256 539.6542422222819L1603.0949586618717 552.3055392376934Q1596.8701747089585 556.887671869699 1588.3687336621556 559.2796027404945Q1579.867292615353 561.6427151670633 1570.530116685983 561.6427151670633L1570.530116685983 561.6427151670633Q1558.484006999327 561.6427151670633 1550.1842950621094 557.8098620849455Q1541.8845831248918 553.9770090028276 1536.6108078314514 546.8300348346679Q1531.3082140937845 539.6542422222819 1528.916283222989 529.5966051872508Q1526.5243523521938 519.5389681522197 1526.5243523521938 507.29112935597846L1526.5243523521938 507.29112935597846Q1526.5243523521938 480.95107133300303 1538.1670038196798 466.9453074389483Q1549.7808368429392 452.9395435448935 1571.5675806781355 452.9395435448935L1571.5675806781355 452.9395435448935Q1581.5099439362605 452.9395435448935 1588.4840074390615 454.4957395331218Q1595.4292524976363 456.0519355213501 1601.0200306775673 458.93377994399515L1601.0200306775673 458.93377994399515L1596.264987380203 473.25654672454084Q1591.4811256386124 470.576431411481 1585.6597999048695 469.0202354232527Q1579.867292615353 467.4640394350244 1573.210231999043 467.4640394350244L1573.210231999043 467.4640394350244Q1543.757781999611 467.4640394350244 1543.757781999611 507.29112935597846L1543.757781999611 507.29112935597846Q1543.757781999611 515.1873830740258 1545.3139779878393 522.3343572421854Q1546.8701739760677 529.4813314103451 1550.5012979486003 534.9856542575969Q1554.1324219211328 540.489977104849 1560.0402029875554 543.8040981908907Q1565.9479840539775 547.1182192769325 1574.679972654592 547.1182192769325L1574.679972654592 547.1182192769325Q1582.1439497092424 547.1182192769325 1588.051730775665 544.8415621830429Q1593.959511842087 542.5649050891534 1597.7059095915256 539.6542422222819L1597.7059095915256 539.6542422222819ZM1690.6742106660536 538.8185073397149L1696.8989946189668 550.864617026371Q1690.6742106660536 555.8502078775468 1681.221760959778 558.7608707444183Q1671.7693112535023 561.6427151670633 1661.1929422223952 561.6427151670633L1661.1929422223952 561.6427151670633Q1649.3773800895506 561.6427151670633 1640.6453914889362 557.8098620849455Q1631.9422213325483 553.9770090028276 1626.3514431526169 546.8300348346679Q1620.7318465284593 539.6542422222819 1618.0517312153993 529.7118789641565Q1615.3427974581132 519.7406972618048 1615.3427974581132 507.29112935597846L1615.3427974581132 507.29112935597846Q1615.3427974581132 480.7205237791914 1627.1583595909576 466.83003366204247Q1639.0027401680286 452.9395435448935 1660.9912131128103 452.9395435448935L1660.9912131128103 452.9395435448935Q1668.0517319482904 452.9395435448935 1675.1122507837706 454.4957395331218Q1682.1439511750245 456.0519355213501 1687.763547799182 460.4035205995441Q1693.3543259791136 464.7551056777381 1696.8989946189668 472.73781472846474Q1700.4148448145938 480.7205237791914 1700.4148448145938 493.8040974579998L1700.4148448145938 493.8040974579998Q1700.4148448145938 500.6628871838949 1699.1756517128565 508.96259912111253L1699.1756517128565 508.96259912111253L1632.5762271055303 508.96259912111253Q1632.5762271055303 518.0692274966707 1634.420607536023 525.1297463321511Q1636.2938064107425 532.1902651676313 1640.241933269766 537.0605822419013Q1644.1900601287896 541.9308993161715 1650.5012994143822 544.5245592965521Q1656.841357144201 547.1182192769325 1665.9768039639857 547.1182192769325L1665.9768039639857 547.1182192769325Q1673.0373227994664 547.1182192769325 1680.0690231907201 544.6398330734578Q1687.1295420262004 542.1614468699831 1690.6742106660536 538.8185073397149L1690.6742106660536 538.8185073397149ZM1661.1929422223952 467.4640394350244L1661.1929422223952 467.4640394350244Q1648.9451034261538 467.4640394350244 1641.5964001484092 473.8905524975228Q1634.218878426438 480.31706556002115 1632.7779562151154 495.8790254423042L1632.7779562151154 495.8790254423042L1684.218879159329 495.8790254423042Q1684.218879159329 480.115336450436 1678.2246427602272 473.77527872061694Q1672.2015879168991 467.4640394350244 1661.1929422223952 467.4640394350244ZM1869.5214755354027 543.8040981908907L1869.5214755354027 559.1643289635886L1783.613693296355 559.1643289635886L1783.613693296355 413.9193700622801L1800.8471229437723 413.9193700622801L1800.8471229437723 543.8040981908907L1869.5214755354027 543.8040981908907ZM1892.7491415819218 559.1643289635886L1892.7491415819218 455.41792974836824L1909.3485654563574 455.41792974836824L1909.3485654563574 559.1643289635886L1892.7491415819218 559.1643289635886ZM1889.2332913862952 423.8905517646318L1889.2332913862952 423.8905517646318Q1889.2332913862952 419.1066900230411 1892.4609571396572 415.67729516009354Q1895.6598044487932 412.247900297146 1900.645395299969 412.247900297146L1900.645395299969 412.247900297146Q1905.630986151145 412.247900297146 1909.146836346772 415.67729516009354Q1912.6915049866252 419.1066900230411 1912.6915049866252 423.8905517646318L1912.6915049866252 423.8905517646318Q1912.6915049866252 428.64559506199606 1909.146836346772 431.7579870384527Q1905.630986151145 434.8703790149093 1900.645395299969 434.8703790149093L1900.645395299969 434.8703790149093Q1895.6598044487932 434.8703790149093 1892.4609571396572 431.7579870384527Q1889.2332913862952 428.64559506199606 1889.2332913862952 423.8905517646318ZM1990.5013043980407 530.951072065894L1990.5013043980407 530.951072065894Q1990.5013043980407 524.7262881129807 1986.7549066486022 521.1816194731274Q1983.0085088991636 517.6657692775004 1977.533004496138 515.2738384067052Q1972.028681648886 512.8819075359097 1965.4868948094818 510.720524218926Q1958.945107970078 508.5303224577158 1953.4407851228257 505.1009275947682Q1947.9652807198004 501.7003511760471 1944.2188829703618 496.2824836614745Q1940.4724852209233 490.8934345911283 1940.4724852209233 481.7579877713436L1940.4724852209233 481.7579877713436Q1940.4724852209233 466.83003366204247 1949.0027447119523 459.884788603468Q1957.5041857587553 452.9395435448935 1972.6338689776417 452.9395435448935L1972.6338689776417 452.9395435448935Q1983.8442437817307 452.9395435448935 1991.423494613287 454.89919775229214Q1999.0027454448432 456.85885195969075 2004.5935236247747 459.567785716977L2004.5935236247747 459.567785716977L2000.6453967657508 473.25654672454084Q1995.8903534683868 470.9798896306513 1989.1468375193972 469.22196453283783Q1982.403321570408 467.4640394350244 1974.708796961946 467.4640394350244L1974.708796961946 467.4640394350244Q1965.602168586388 467.4640394350244 1961.337038840873 470.576431411481Q1957.0719090953585 473.6888233879376 1957.0719090953585 481.35452955217335L1957.0719090953585 481.35452955217335Q1957.0719090953585 486.7435786225195 1960.818306844797 489.76951526629676Q1964.5647045942355 492.7666334658476 1970.0402089972608 495.15856433664294Q1975.5445318445131 497.5504952074383 1982.086318683917 499.8271523013279Q1988.6281055233212 502.1038093952174 1994.1324283705735 505.85020714465594Q1999.6079327735988 509.567786449868 2003.3543305230373 515.2738384067052Q2007.1007282724759 520.9798903635422 2007.1007282724759 530.3170662929122L2007.1007282724759 530.3170662929122Q2007.1007282724759 536.974126909222 2004.9105265112657 542.7666341987385Q2002.7203247500556 548.5879599324815 1998.1670105622766 552.7378159010902Q1993.613696374497 556.887671869699 1986.870180425508 559.2796027404945Q1980.1266644765183 561.6427151670633 1970.991217656734 561.6427151670633L1970.991217656734 561.6427151670633Q1959.1468370796629 561.6427151670633 1950.8471251424453 559.3660580731737Q1942.5474132052277 557.0894009792842 1936.9566350252962 553.9770090028276L1936.9566350252962 553.9770090028276L1941.942225876472 539.8559713318671Q1946.6972691738365 542.5649050891534 1954.391793782299 544.8415621830429Q1962.0574999465343 547.1182192769325 1969.9537536645817 547.1182192769325L1969.9537536645817 547.1182192769325Q1978.8586529305549 547.1182192769325 1984.6799786642978 543.6023690813056Q1990.5013043980407 540.0865188856787 1990.5013043980407 530.951072065894ZM2018.5128321861503 469.9424256384991L2018.5128321861503 455.41792974836824L2034.6799793971886 455.41792974836824L2034.6799793971886 434.8703790149093L2051.2794032716242 430.11533571754507L2051.2794032716242 455.41792974836824L2079.4926601693182 455.41792974836824L2079.4926601693182 469.9424256384991L2051.2794032716242 469.9424256384991L2051.2794032716242 527.4064034260407Q2051.2794032716242 538.2133200109595 2053.9883370289103 542.6801788660591Q2056.66845234197 547.1182192769325 2063.123783848695 547.1182192769325L2063.123783848695 547.1182192769325Q2068.512832919041 547.1182192769325 2072.230412224253 545.9942999521008Q2075.9768099736916 544.8415621830429 2080.5301241614707 542.9683633083237L2080.5301241614707 542.9683633083237L2084.276521910909 555.6484787679617Q2078.685743730978 558.3285940810215 2072.028683114668 560.0000638461556Q2065.4004409425843 561.6427151670633 2057.7059163341223 561.6427151670633L2057.7059163341223 561.6427151670633Q2045.0546193187106 561.6427151670633 2039.8672993579494 554.4957409989038Q2034.6799793971886 547.3487668307441 2034.6799793971886 530.5187954024973L2034.6799793971886 530.5187954024973L2034.6799793971886 469.9424256384991L2018.5128321861503 469.9424256384991Z " fill="#fcedda" transform="matrix(0.4198099488677753,0,0,0.4198099488677753,0,95.70256122126487)"/></g></svg>